<svg width="16" height="16" viewBox="0 0 16 16" fill="none" xmlns="http://www.w3.org/2000/svg">
<path d="M13.768 7.39668L12.4368 7.46548C12.3392 6.64788 12.0192 5.87508 11.5072 5.22868L12.4976 4.33908C12.6224 4.22708 12.6944 4.06388 12.6944 3.89268C12.6944 3.73268 12.6336 3.58068 12.5216 3.46868C12.4 3.35028 12.2432 3.28628 12.0752 3.29268C11.9104 3.29748 11.76 3.36788 11.6496 3.49108L10.76 4.48148C10.1136 3.96948 9.34076 3.64788 8.52156 3.55348L8.59356 2.22708V2.19188C8.59356 1.86228 8.32316 1.59668 7.99356 1.59668C7.82716 1.59668 7.67196 1.66228 7.55676 1.78548C7.44156 1.90708 7.38556 2.06228 7.39516 2.22868L7.46716 3.55188C6.64476 3.64628 5.87356 3.96788 5.22556 4.47988L4.34076 3.49748C4.22876 3.36948 4.06556 3.29908 3.89756 3.29908C3.73756 3.29908 3.58556 3.36148 3.47196 3.47508C3.35516 3.59348 3.29276 3.75028 3.29596 3.91668C3.30076 4.08308 3.37116 4.23508 3.49436 4.34548L4.47996 5.23348C3.96476 5.87988 3.64476 6.65748 3.55036 7.47668L2.23356 7.40468H2.20316C1.87196 7.40468 1.60156 7.67508 1.60156 8.00628C1.60156 8.17268 1.66876 8.32628 1.79036 8.44148C1.90236 8.54708 2.04796 8.60628 2.20156 8.60628C2.21436 8.60628 2.22556 8.60628 2.23676 8.60468L3.55356 8.53588C3.65116 9.35508 3.97276 10.1295 4.48796 10.7775L3.50556 11.6623C3.37756 11.7743 3.30396 11.9375 3.30396 12.1055C3.30396 12.2655 3.36636 12.4175 3.48156 12.5311C3.59356 12.6431 3.74716 12.7071 3.90716 12.7071H3.92156C4.08796 12.7023 4.23996 12.6319 4.35036 12.5087L5.23676 11.5247C5.88316 12.0367 6.65756 12.3551 7.47836 12.4479L7.40636 13.7711V13.8015C7.40636 14.1327 7.67676 14.4015 8.00796 14.4015C8.17436 14.4015 8.32796 14.3359 8.44316 14.2159C8.55836 14.0943 8.61596 13.9375 8.60476 13.7695L8.53596 12.4463C9.35836 12.3471 10.128 12.0239 10.7712 11.5119L11.6608 12.5007C11.776 12.6287 11.9376 12.6991 12.1072 12.6991C12.2672 12.6991 12.4192 12.6367 12.5328 12.5231C12.6496 12.4063 12.7104 12.2511 12.7056 12.0847C12.7008 11.9183 12.632 11.7647 12.5088 11.6543L11.5184 10.7615C12.0288 10.1151 12.3472 9.34068 12.4416 8.52468L13.7728 8.59828H13.8032C14.1344 8.59828 14.4032 8.32788 14.4032 7.99668C14.4032 7.83028 14.3376 7.67668 14.2176 7.56148C14.0928 7.44468 13.9344 7.38548 13.768 7.39668ZM7.53436 4.81108L7.66236 7.19508L6.06556 5.41908C6.49276 5.09748 7.00156 4.88628 7.53436 4.81108ZM5.41116 6.07188L7.19196 7.67348L4.80316 7.54388C4.87676 7.01108 5.08956 6.50228 5.41116 6.07188ZM4.80636 8.46708L7.19676 8.33908L5.41916 9.93748C5.09436 9.50548 4.88156 8.99988 4.80636 8.46708ZM7.54396 11.1903C7.01116 11.1167 6.50396 10.9087 6.07356 10.5887L7.67516 8.80788L7.54396 11.1903ZM11.184 7.53268L8.80636 7.66068L10.576 6.07028C10.8976 6.49908 11.1072 7.00308 11.184 7.53268ZM8.45596 4.81108C8.99036 4.88628 9.49596 5.09428 9.92316 5.41748L8.32956 7.19348L8.45596 4.81108ZM8.46876 11.1887L8.34076 8.80468L9.93276 10.5759C9.50236 10.9007 8.99836 11.1135 8.46876 11.1887ZM10.584 9.92148L8.80956 8.32788L11.1856 8.45748C11.112 8.98708 10.904 9.49268 10.584 9.92148Z" fill="white"/>
</svg>
