<svg width="16" height="16" viewBox="0 0 16 16" fill="none" xmlns="http://www.w3.org/2000/svg">
<path d="M11.2883 3.00005C11.258 3.71645 11.3768 7.80659 11.1916 8.41667H11.1923C10.9901 9.4298 10.4606 10.3391 9.69282 10.9922C8.92508 11.6445 7.9652 12.0007 6.9757 12H5.32265C4.33312 12.0007 3.3739 11.6444 2.60553 10.9922C1.83779 10.3392 1.30828 9.42985 1.10608 8.41667C0.919681 7.82452 1.04289 3.69134 1.0094 3.00005H11.2883ZM13.2775 3.00005H12.2633C12.2558 3.20162 12.2564 3.53403 12.2633 4.02044H13.2826C13.6933 4.02308 14.025 4.37202 14.0244 4.80094V6.76043C14.0174 7.24486 13.8127 7.7035 13.4608 8.02006C13.1088 8.33597 12.645 8.47937 12.1856 8.41328C12.1306 8.76091 12.0441 9.10258 11.9265 9.43367C13.5404 9.61145 14.9824 8.52034 14.9994 6.76038L15 4.80089C15 4.32373 14.8186 3.86509 14.4958 3.52738C14.1729 3.18967 13.7343 3 13.2781 3L13.2775 3.00005Z" fill="white"/>
</svg>
