<svg width="16" height="16" viewBox="0 0 16 16" fill="none" xmlns="http://www.w3.org/2000/svg">
<path fill-rule="evenodd" clip-rule="evenodd" d="M8.01495 15.5584H5.19348C4.45956 15.5584 3.84659 15.0307 3.73523 14.3032L2.35761 5.29037C2.28993 4.84836 2.4061 4.44151 2.6965 4.10207C2.9869 3.76311 3.37042 3.58592 3.81587 3.58592H4.81956V5.7497C4.81956 5.95385 4.98468 6.11996 5.18868 6.11996C5.32932 6.11996 5.45125 6.04148 5.51365 5.92544C5.48533 5.87296 5.46949 5.81325 5.46949 5.7497V2.92244C5.46949 2.21996 5.75557 1.58151 6.21685 1.11881C6.67814 0.656104 7.31462 0.369141 8.01495 0.369141C8.71528 0.369141 9.35176 0.656104 9.81305 1.11881C10.2743 1.58151 10.5604 2.21996 10.5604 2.92244V3.58592H12.2136C12.659 3.58592 13.043 3.76262 13.3329 4.10207C13.6228 4.44103 13.739 4.84836 13.6718 5.29037L12.2942 14.3032C12.1833 15.0307 11.5699 15.5584 10.8359 15.5584H8.01447H8.01495ZM6.20677 3.58592H8.01495H9.1732V5.7497C9.1732 5.95385 9.33832 6.11996 9.54233 6.11996C9.68297 6.11996 9.80489 6.04148 9.86729 5.92544C9.83897 5.87296 9.82313 5.81325 9.82313 5.7497V2.92244C9.82313 2.4241 9.61961 1.97103 9.29176 1.64218C8.96392 1.31333 8.51224 1.10918 8.01543 1.10918C7.51863 1.10918 7.06646 1.31333 6.7391 1.64218C6.41125 1.97103 6.20773 2.4241 6.20773 2.92244V3.58592H6.20677Z" fill="white"/>
</svg>
