<svg width="16" height="16" viewBox="0 0 16 16" fill="none" xmlns="http://www.w3.org/2000/svg">
<path d="M14.0405 8.1317H14.0422L14.0302 8.11807C13.9819 8.06182 13.9302 8.00898 13.8774 7.95783L11.2461 5.17776C11.0313 4.95049 10.7586 4.8022 10.4694 4.73856C10.1194 4.66129 9.74442 4.70958 9.41261 4.8914C8.96147 5.14141 8.6842 5.58914 8.63762 6.06925C8.63307 6.09937 8.63137 6.13005 8.63023 6.16016C8.62284 6.31584 8.64102 6.47379 8.68477 6.62948C8.70125 6.69028 8.72284 6.75051 8.74841 6.8096C8.7558 6.82949 8.76489 6.84881 8.77398 6.86869L8.91318 7.16244H7.08424L7.22344 6.86869C7.23253 6.84881 7.24162 6.82949 7.24901 6.8096C7.27458 6.75051 7.29617 6.68971 7.31265 6.62948C7.3564 6.4738 7.37458 6.31586 7.36719 6.16016C7.36549 6.13005 7.36435 6.09937 7.35981 6.06925C7.31265 5.58914 7.03594 5.14084 6.58481 4.8914C6.2547 4.70959 5.87912 4.663 5.5297 4.73856C5.23879 4.8022 4.96663 4.95049 4.75128 5.17776L2.12001 7.95783C2.06717 8.00954 2.01546 8.06238 1.96717 8.11807L1.95523 8.1317H1.95694C1.64331 8.50556 1.4541 8.98738 1.4541 9.51239C1.4541 10.7027 2.42001 11.6669 3.61032 11.6669C4.56884 11.6669 5.38021 11.0402 5.66036 10.1736L6.32513 8.77022H9.67451L10.3393 10.1736C10.4802 10.6066 10.7523 10.9804 11.1097 11.2441C11.4671 11.5106 11.9092 11.6662 12.3893 11.6662C13.5796 11.6662 14.5455 10.702 14.5455 9.51176C14.5455 8.98619 14.3563 8.50494 14.0427 8.13108L14.0405 8.1317ZM5.03305 9.51239C5.03305 10.2999 4.39555 10.9385 3.60805 10.9385C2.82054 10.9385 2.18191 10.2993 2.18191 9.51239C2.18191 8.88682 2.58645 8.35387 3.14611 8.16353C3.29157 8.11353 3.44611 8.08626 3.60805 8.08626C3.63532 8.08626 3.66089 8.08626 3.68702 8.08796C4.2427 8.11978 4.71203 8.46637 4.91942 8.95273C4.9893 9.11637 5.02851 9.29648 5.03305 9.48397V9.51295L5.03305 9.51239ZM6.66999 8.03457L6.78363 7.79367H9.21199L9.32563 8.03457H6.66999ZM12.3871 10.9386C11.5996 10.9386 10.9621 10.2994 10.9621 9.51243V9.48345C10.9666 9.29595 11.0058 9.11528 11.0757 8.95221C11.2831 8.46642 11.7524 8.11925 12.3081 8.08744C12.3337 8.08573 12.3598 8.08573 12.3871 8.08573C12.549 8.08573 12.7036 8.11301 12.849 8.16301C13.4093 8.35392 13.8132 8.88688 13.8132 9.51186C13.8132 10.2994 13.174 10.938 12.3871 10.938L12.3871 10.9386Z" fill="white"/>
<path d="M6.05427 4.55809C6.33835 4.56604 6.52983 4.60866 6.75086 4.73138C7.17245 4.96604 7.28723 5.27854 7.41962 5.51036C7.46166 5.58366 7.56961 5.56434 7.58894 5.48252C7.69121 5.04162 7.49235 4.57343 7.08155 4.34616C6.73894 4.15752 6.32814 4.18082 6.01336 4.38934C5.94121 4.43707 5.96791 4.55525 6.0537 4.5581L6.05427 4.55809Z" fill="white"/>
<path d="M8.57705 5.51092C8.70943 5.2791 8.82477 4.96604 9.2458 4.73194C9.46682 4.60922 9.65773 4.5666 9.9424 4.55865C10.0288 4.55638 10.0549 4.43763 9.98274 4.38989C9.66853 4.18194 9.25717 4.15865 8.91455 4.34671C8.50376 4.57341 8.30546 5.04216 8.40716 5.48307C8.42591 5.56489 8.53443 5.58421 8.57648 5.51091L8.57705 5.51092Z" fill="white"/>
</svg>
