<svg width="16" height="16" viewBox="0 0 16 16" fill="none" xmlns="http://www.w3.org/2000/svg">
<mask id="mask0_2706_2647" style="mask-type:luminance" maskUnits="userSpaceOnUse" x="5" y="6" width="5" height="10">
<path d="M5.20996 6.30176H9.91082V15.7055H5.20996V6.30176Z" fill="white"/>
</mask>
<g mask="url(#mask0_2706_2647)">
<path d="M8.3464 9.31203C8.17112 9.60934 7.84726 9.79475 7.50338 9.79475C7.15783 9.79475 6.83565 9.60934 6.66036 9.31203C6.28476 8.67565 5.73555 7.70522 5.21973 6.66797V14.4565L9.78703 15.599V6.66797C9.27121 7.70522 8.72033 8.67565 8.3464 9.31203Z" fill="white"/>
</g>
<mask id="mask1_2706_2647" style="mask-type:luminance" maskUnits="userSpaceOnUse" x="0" y="4" width="5" height="12">
<path d="M0 4.5918H4.78265V15.7059H0V4.5918Z" fill="white"/>
</mask>
<g mask="url(#mask1_2706_2647)">
<path d="M4.56731 4.65234L0.235377 5.89003C0.0951522 5.93011 0 6.05873 0 6.20404V15.3455C0 15.4474 0.0467416 15.5443 0.128539 15.6061C0.186966 15.6478 0.255409 15.6712 0.325521 15.6712C0.355569 15.6712 0.385617 15.6679 0.415665 15.6595L4.56731 14.472V4.65234Z" fill="white"/>
</g>
<mask id="mask2_2706_2647" style="mask-type:luminance" maskUnits="userSpaceOnUse" x="10" y="4" width="6" height="12">
<path d="M10.3389 4.16406H15.6958V15.7057H10.3389V4.16406Z" fill="white"/>
</mask>
<g mask="url(#mask2_2706_2647)">
<path d="M15.5352 4.6397C15.4551 4.57789 15.3516 4.55451 15.2548 4.58124L10.4404 5.78551V15.5984L15.4134 14.3541C15.5586 14.319 15.6604 14.1887 15.6604 14.0384V4.89692C15.6604 4.7967 15.6137 4.7015 15.5352 4.6397Z" fill="white"/>
</g>
<mask id="mask3_2706_2647" style="mask-type:luminance" maskUnits="userSpaceOnUse" x="4" y="0" width="7" height="10">
<path d="M4.35547 0H10.7657V9.29515H4.35547V0Z" fill="white"/>
</mask>
<g mask="url(#mask3_2706_2647)">
<path d="M7.50375 0C5.88449 0 4.56738 1.31953 4.56738 2.93971C4.56738 4.42626 6.9512 8.52013 7.22163 8.98113C7.28173 9.07968 7.38689 9.14148 7.50375 9.14148C7.61893 9.14148 7.72577 9.07968 7.7842 8.98113C8.0563 8.52013 10.4401 4.42626 10.4401 2.93971C10.4401 1.31953 9.12301 0 7.50375 0ZM7.50375 3.91849C6.96455 3.91849 6.52552 3.47921 6.52552 2.93971C6.52552 2.39853 6.96455 1.95925 7.50375 1.95925C8.04294 1.95925 8.48198 2.39853 8.48198 2.93971C8.48198 3.47921 8.04294 3.91849 7.50375 3.91849Z" fill="white"/>
</g>
</svg>
